<mxfile host="app.diagrams.net" modified="2021-04-26T17:55:15.170Z" agent="5.0 (Windows NT 10.0; Win64; x64) AppleWebKit/537.36 (KHTML, like Gecko) Chrome/89.0.4389.114 Safari/537.36 OPR/75.0.3969.231" etag="IwZmh4T_xMrYWESUkuLd" version="14.6.6" type="github">
  <diagram id="oIhNnG49JmPTYv43iCb6" name="Página-1">
    <mxGraphModel dx="1381" dy="1933" grid="1" gridSize="10" guides="1" tooltips="1" connect="1" arrows="1" fold="1" page="1" pageScale="1" pageWidth="827" pageHeight="1169" math="0" shadow="0">
      <root>
        <mxCell id="0" />
        <mxCell id="1" parent="0" />
        <mxCell id="CRJgZOJ3f7SkSlsr6l8E-1" value="Cliente" style="whiteSpace=wrap;html=1;align=center;" vertex="1" parent="1">
          <mxGeometry x="140" y="100" width="100" height="40" as="geometry" />
        </mxCell>
        <mxCell id="CRJgZOJ3f7SkSlsr6l8E-3" value="Possui" style="shape=rhombus;perimeter=rhombusPerimeter;whiteSpace=wrap;html=1;align=center;" vertex="1" parent="1">
          <mxGeometry x="370" y="90" width="120" height="60" as="geometry" />
        </mxCell>
        <mxCell id="CRJgZOJ3f7SkSlsr6l8E-5" value="" style="endArrow=none;html=1;rounded=0;" edge="1" parent="1" target="CRJgZOJ3f7SkSlsr6l8E-3">
          <mxGeometry relative="1" as="geometry">
            <mxPoint x="240" y="119.41" as="sourcePoint" />
            <mxPoint x="360" y="119" as="targetPoint" />
          </mxGeometry>
        </mxCell>
        <mxCell id="CRJgZOJ3f7SkSlsr6l8E-6" value="Conta" style="whiteSpace=wrap;html=1;align=center;" vertex="1" parent="1">
          <mxGeometry x="620" y="100" width="100" height="40" as="geometry" />
        </mxCell>
        <mxCell id="CRJgZOJ3f7SkSlsr6l8E-8" value="RG" style="ellipse;whiteSpace=wrap;html=1;align=center;" vertex="1" parent="1">
          <mxGeometry x="60" y="20" width="100" height="40" as="geometry" />
        </mxCell>
        <mxCell id="CRJgZOJ3f7SkSlsr6l8E-10" value="Endereço&lt;br&gt;" style="ellipse;whiteSpace=wrap;html=1;align=center;" vertex="1" parent="1">
          <mxGeometry x="10" y="70" width="100" height="40" as="geometry" />
        </mxCell>
        <mxCell id="CRJgZOJ3f7SkSlsr6l8E-13" value="" style="endArrow=none;html=1;rounded=0;entryX=0;entryY=1;entryDx=0;entryDy=0;" edge="1" parent="1" target="CRJgZOJ3f7SkSlsr6l8E-1">
          <mxGeometry relative="1" as="geometry">
            <mxPoint x="100" y="150" as="sourcePoint" />
            <mxPoint x="270" y="150" as="targetPoint" />
          </mxGeometry>
        </mxCell>
        <mxCell id="CRJgZOJ3f7SkSlsr6l8E-14" value="" style="endArrow=none;html=1;rounded=0;entryX=0;entryY=0.25;entryDx=0;entryDy=0;" edge="1" parent="1" target="CRJgZOJ3f7SkSlsr6l8E-1">
          <mxGeometry relative="1" as="geometry">
            <mxPoint x="110" y="90" as="sourcePoint" />
            <mxPoint x="180" y="120" as="targetPoint" />
          </mxGeometry>
        </mxCell>
        <mxCell id="CRJgZOJ3f7SkSlsr6l8E-15" value="" style="endArrow=none;html=1;rounded=0;exitX=0.132;exitY=-0.008;exitDx=0;exitDy=0;exitPerimeter=0;" edge="1" parent="1" source="CRJgZOJ3f7SkSlsr6l8E-1" target="CRJgZOJ3f7SkSlsr6l8E-8">
          <mxGeometry relative="1" as="geometry">
            <mxPoint x="120" y="100" as="sourcePoint" />
            <mxPoint x="150" y="120" as="targetPoint" />
          </mxGeometry>
        </mxCell>
        <mxCell id="CRJgZOJ3f7SkSlsr6l8E-16" value="" style="endArrow=none;html=1;rounded=0;entryX=0.5;entryY=1;entryDx=0;entryDy=0;" edge="1" parent="1" source="CRJgZOJ3f7SkSlsr6l8E-1">
          <mxGeometry relative="1" as="geometry">
            <mxPoint x="120" y="100" as="sourcePoint" />
            <mxPoint x="220" y="60" as="targetPoint" />
          </mxGeometry>
        </mxCell>
        <mxCell id="CRJgZOJ3f7SkSlsr6l8E-17" value="N" style="text;strokeColor=none;fillColor=none;spacingLeft=4;spacingRight=4;overflow=hidden;rotatable=0;points=[[0,0.5],[1,0.5]];portConstraint=eastwest;fontSize=12;" vertex="1" parent="1">
          <mxGeometry x="480" y="100" width="40" height="30" as="geometry" />
        </mxCell>
        <mxCell id="CRJgZOJ3f7SkSlsr6l8E-18" value="1" style="text;strokeColor=none;fillColor=none;spacingLeft=4;spacingRight=4;overflow=hidden;rotatable=0;points=[[0,0.5],[1,0.5]];portConstraint=eastwest;fontSize=12;" vertex="1" parent="1">
          <mxGeometry x="360" y="100" width="40" height="30" as="geometry" />
        </mxCell>
        <mxCell id="CRJgZOJ3f7SkSlsr6l8E-22" value="" style="endArrow=none;html=1;rounded=0;" edge="1" parent="1">
          <mxGeometry relative="1" as="geometry">
            <mxPoint x="490" y="120" as="sourcePoint" />
            <mxPoint x="620" y="120" as="targetPoint" />
          </mxGeometry>
        </mxCell>
        <mxCell id="CRJgZOJ3f7SkSlsr6l8E-23" value="Agência" style="whiteSpace=wrap;html=1;align=center;" vertex="1" parent="1">
          <mxGeometry x="620" y="-200" width="100" height="40" as="geometry" />
        </mxCell>
        <mxCell id="CRJgZOJ3f7SkSlsr6l8E-24" value="Possui&lt;br&gt;" style="shape=rhombus;perimeter=rhombusPerimeter;whiteSpace=wrap;html=1;align=center;" vertex="1" parent="1">
          <mxGeometry x="610" y="-60" width="120" height="60" as="geometry" />
        </mxCell>
        <mxCell id="CRJgZOJ3f7SkSlsr6l8E-25" value="" style="endArrow=none;html=1;rounded=0;exitX=0.5;exitY=1;exitDx=0;exitDy=0;" edge="1" parent="1" source="CRJgZOJ3f7SkSlsr6l8E-23" target="CRJgZOJ3f7SkSlsr6l8E-24">
          <mxGeometry relative="1" as="geometry">
            <mxPoint x="340" y="-40" as="sourcePoint" />
            <mxPoint x="500" y="-40" as="targetPoint" />
          </mxGeometry>
        </mxCell>
        <mxCell id="CRJgZOJ3f7SkSlsr6l8E-27" value="&lt;u&gt;Número&lt;/u&gt;" style="ellipse;whiteSpace=wrap;html=1;align=center;" vertex="1" parent="1">
          <mxGeometry x="660" y="-280" width="100" height="40" as="geometry" />
        </mxCell>
        <mxCell id="CRJgZOJ3f7SkSlsr6l8E-29" value="" style="endArrow=none;html=1;rounded=0;entryX=0.5;entryY=1;entryDx=0;entryDy=0;exitX=0.609;exitY=-0.024;exitDx=0;exitDy=0;exitPerimeter=0;" edge="1" parent="1" source="CRJgZOJ3f7SkSlsr6l8E-23" target="CRJgZOJ3f7SkSlsr6l8E-27">
          <mxGeometry relative="1" as="geometry">
            <mxPoint x="590" y="130" as="sourcePoint" />
            <mxPoint x="750" y="130" as="targetPoint" />
          </mxGeometry>
        </mxCell>
        <mxCell id="CRJgZOJ3f7SkSlsr6l8E-30" value="CPF" style="ellipse;whiteSpace=wrap;html=1;align=center;fontStyle=4;" vertex="1" parent="1">
          <mxGeometry x="170" y="20" width="100" height="40" as="geometry" />
        </mxCell>
        <mxCell id="CRJgZOJ3f7SkSlsr6l8E-31" value="Nome&lt;br&gt;" style="ellipse;whiteSpace=wrap;html=1;align=center;" vertex="1" parent="1">
          <mxGeometry x="280" y="20" width="100" height="40" as="geometry" />
        </mxCell>
        <mxCell id="CRJgZOJ3f7SkSlsr6l8E-32" value="" style="endArrow=none;html=1;rounded=0;entryX=0.5;entryY=1;entryDx=0;entryDy=0;exitX=1;exitY=0.25;exitDx=0;exitDy=0;" edge="1" parent="1" source="CRJgZOJ3f7SkSlsr6l8E-1" target="CRJgZOJ3f7SkSlsr6l8E-31">
          <mxGeometry relative="1" as="geometry">
            <mxPoint x="210" y="110" as="sourcePoint" />
            <mxPoint x="230" y="70" as="targetPoint" />
          </mxGeometry>
        </mxCell>
        <mxCell id="CRJgZOJ3f7SkSlsr6l8E-33" value="Telefones" style="ellipse;shape=doubleEllipse;margin=3;whiteSpace=wrap;html=1;align=center;" vertex="1" parent="1">
          <mxGeometry x="10" y="120" width="100" height="40" as="geometry" />
        </mxCell>
        <mxCell id="CRJgZOJ3f7SkSlsr6l8E-35" value="1" style="text;strokeColor=none;fillColor=none;spacingLeft=4;spacingRight=4;overflow=hidden;rotatable=0;points=[[0,0.5],[1,0.5]];portConstraint=eastwest;fontSize=12;" vertex="1" parent="1">
          <mxGeometry x="650" y="-80" width="40" height="30" as="geometry" />
        </mxCell>
        <mxCell id="CRJgZOJ3f7SkSlsr6l8E-36" value="N" style="text;strokeColor=none;fillColor=none;spacingLeft=4;spacingRight=4;overflow=hidden;rotatable=0;points=[[0,0.5],[1,0.5]];portConstraint=eastwest;fontSize=12;" vertex="1" parent="1">
          <mxGeometry x="650" width="40" height="30" as="geometry" />
        </mxCell>
        <mxCell id="CRJgZOJ3f7SkSlsr6l8E-37" value="" style="endArrow=none;html=1;rounded=0;exitX=0.5;exitY=1;exitDx=0;exitDy=0;" edge="1" parent="1" target="CRJgZOJ3f7SkSlsr6l8E-36">
          <mxGeometry relative="1" as="geometry">
            <mxPoint x="669.4099999999999" as="sourcePoint" />
            <mxPoint x="669.4099999999999" y="100" as="targetPoint" />
          </mxGeometry>
        </mxCell>
        <mxCell id="CRJgZOJ3f7SkSlsr6l8E-39" value="Endereço&lt;br&gt;" style="ellipse;whiteSpace=wrap;html=1;align=center;" vertex="1" parent="1">
          <mxGeometry x="550" y="-280" width="100" height="40" as="geometry" />
        </mxCell>
        <mxCell id="CRJgZOJ3f7SkSlsr6l8E-41" value="" style="endArrow=none;html=1;rounded=0;exitX=0.5;exitY=1;exitDx=0;exitDy=0;entryX=0;entryY=0.5;entryDx=0;entryDy=0;" edge="1" parent="1" source="CRJgZOJ3f7SkSlsr6l8E-39" target="CRJgZOJ3f7SkSlsr6l8E-23">
          <mxGeometry relative="1" as="geometry">
            <mxPoint x="350" y="-160" as="sourcePoint" />
            <mxPoint x="510" y="-160" as="targetPoint" />
          </mxGeometry>
        </mxCell>
        <mxCell id="CRJgZOJ3f7SkSlsr6l8E-42" value="Gerente" style="whiteSpace=wrap;html=1;align=center;" vertex="1" parent="1">
          <mxGeometry x="1040" y="-200" width="100" height="40" as="geometry" />
        </mxCell>
        <mxCell id="CRJgZOJ3f7SkSlsr6l8E-43" value="Gerencia&lt;br&gt;" style="shape=rhombus;perimeter=rhombusPerimeter;whiteSpace=wrap;html=1;align=center;" vertex="1" parent="1">
          <mxGeometry x="820" y="-210" width="120" height="60" as="geometry" />
        </mxCell>
        <mxCell id="CRJgZOJ3f7SkSlsr6l8E-44" value="" style="endArrow=none;html=1;rounded=0;" edge="1" parent="1">
          <mxGeometry relative="1" as="geometry">
            <mxPoint x="940" y="-180.42000000000002" as="sourcePoint" />
            <mxPoint x="1040" y="-180" as="targetPoint" />
          </mxGeometry>
        </mxCell>
        <mxCell id="CRJgZOJ3f7SkSlsr6l8E-45" value="" style="endArrow=none;html=1;rounded=0;" edge="1" parent="1">
          <mxGeometry relative="1" as="geometry">
            <mxPoint x="720" y="-180.42000000000007" as="sourcePoint" />
            <mxPoint x="820" y="-180" as="targetPoint" />
          </mxGeometry>
        </mxCell>
        <mxCell id="CRJgZOJ3f7SkSlsr6l8E-46" value="0?" style="text;strokeColor=none;fillColor=none;spacingLeft=4;spacingRight=4;overflow=hidden;rotatable=0;points=[[0,0.5],[1,0.5]];portConstraint=eastwest;fontSize=12;" vertex="1" parent="1">
          <mxGeometry x="800" y="-200" width="40" height="30" as="geometry" />
        </mxCell>
        <mxCell id="CRJgZOJ3f7SkSlsr6l8E-47" value="1" style="text;strokeColor=none;fillColor=none;spacingLeft=4;spacingRight=4;overflow=hidden;rotatable=0;points=[[0,0.5],[1,0.5]];portConstraint=eastwest;fontSize=12;" vertex="1" parent="1">
          <mxGeometry x="930" y="-200" width="40" height="30" as="geometry" />
        </mxCell>
        <mxCell id="CRJgZOJ3f7SkSlsr6l8E-48" value="" style="endArrow=none;html=1;rounded=0;exitX=0.5;exitY=1;exitDx=0;exitDy=0;" edge="1" parent="1">
          <mxGeometry relative="1" as="geometry">
            <mxPoint x="669.5" as="sourcePoint" />
            <mxPoint x="669.5" y="100" as="targetPoint" />
          </mxGeometry>
        </mxCell>
        <mxCell id="CRJgZOJ3f7SkSlsr6l8E-58" style="edgeStyle=orthogonalEdgeStyle;rounded=0;orthogonalLoop=1;jettySize=auto;html=1;" edge="1" parent="1" source="CRJgZOJ3f7SkSlsr6l8E-49">
          <mxGeometry relative="1" as="geometry">
            <mxPoint x="440" y="-200" as="targetPoint" />
          </mxGeometry>
        </mxCell>
        <mxCell id="CRJgZOJ3f7SkSlsr6l8E-49" value="Funcionário" style="whiteSpace=wrap;html=1;align=center;" vertex="1" parent="1">
          <mxGeometry x="240" y="-390" width="100" height="40" as="geometry" />
        </mxCell>
        <mxCell id="CRJgZOJ3f7SkSlsr6l8E-51" value="Nome&lt;br&gt;" style="ellipse;whiteSpace=wrap;html=1;align=center;" vertex="1" parent="1">
          <mxGeometry x="80" y="-460" width="100" height="40" as="geometry" />
        </mxCell>
        <mxCell id="CRJgZOJ3f7SkSlsr6l8E-52" value="&lt;u&gt;RG&lt;/u&gt;" style="ellipse;whiteSpace=wrap;html=1;align=center;" vertex="1" parent="1">
          <mxGeometry x="70" y="-410" width="100" height="40" as="geometry" />
        </mxCell>
        <mxCell id="CRJgZOJ3f7SkSlsr6l8E-53" value="CPF" style="ellipse;whiteSpace=wrap;html=1;align=center;fontStyle=4;" vertex="1" parent="1">
          <mxGeometry x="80" y="-360" width="100" height="40" as="geometry" />
        </mxCell>
        <mxCell id="CRJgZOJ3f7SkSlsr6l8E-54" value="Endereço&lt;br&gt;" style="ellipse;whiteSpace=wrap;html=1;align=center;" vertex="1" parent="1">
          <mxGeometry x="120" y="-310" width="100" height="40" as="geometry" />
        </mxCell>
        <mxCell id="CRJgZOJ3f7SkSlsr6l8E-55" value="Telefones" style="ellipse;shape=doubleEllipse;margin=3;whiteSpace=wrap;html=1;align=center;" vertex="1" parent="1">
          <mxGeometry x="230" y="-310" width="100" height="40" as="geometry" />
        </mxCell>
        <mxCell id="CRJgZOJ3f7SkSlsr6l8E-56" value="Salário" style="ellipse;whiteSpace=wrap;html=1;align=center;" vertex="1" parent="1">
          <mxGeometry x="140" y="-500" width="100" height="40" as="geometry" />
        </mxCell>
        <mxCell id="CRJgZOJ3f7SkSlsr6l8E-60" style="edgeStyle=orthogonalEdgeStyle;rounded=0;orthogonalLoop=1;jettySize=auto;html=1;startArrow=none;startFill=0;endArrow=none;endFill=0;" edge="1" parent="1" source="CRJgZOJ3f7SkSlsr6l8E-59" target="CRJgZOJ3f7SkSlsr6l8E-23">
          <mxGeometry relative="1" as="geometry" />
        </mxCell>
        <mxCell id="CRJgZOJ3f7SkSlsr6l8E-59" value="Trabalha" style="shape=rhombus;perimeter=rhombusPerimeter;whiteSpace=wrap;html=1;align=center;" vertex="1" parent="1">
          <mxGeometry x="380" y="-210" width="120" height="60" as="geometry" />
        </mxCell>
        <mxCell id="CRJgZOJ3f7SkSlsr6l8E-61" value="N" style="text;strokeColor=none;fillColor=none;spacingLeft=4;spacingRight=4;overflow=hidden;rotatable=0;points=[[0,0.5],[1,0.5]];portConstraint=eastwest;fontSize=12;" vertex="1" parent="1">
          <mxGeometry x="440" y="-240" width="40" height="30" as="geometry" />
        </mxCell>
        <mxCell id="CRJgZOJ3f7SkSlsr6l8E-65" value="1" style="text;strokeColor=none;fillColor=none;spacingLeft=4;spacingRight=4;overflow=hidden;rotatable=0;points=[[0,0.5],[1,0.5]];portConstraint=eastwest;fontSize=12;" vertex="1" parent="1">
          <mxGeometry x="490" y="-200" width="40" height="30" as="geometry" />
        </mxCell>
      </root>
    </mxGraphModel>
  </diagram>
</mxfile>
